<?xml version="1.0" encoding="UTF-8"?>
<svg width="512pt" height="512pt" viewBox="0 0 512 512" xmlns="http://www.w3.org/2000/svg" xmlns:xlink="http://www.w3.org/1999/xlink">
<linearGradient id="j" x1="169.99" x2="299.49" y1="71.986" y2="349.05" gradientUnits="userSpaceOnUse">
<stop stop-color="#3457a0" offset="0"/>
<stop stop-color="#3b5998" offset="1"/>
</linearGradient>
<linearGradient id="f">
<stop stop-color="#3457a0" stop-opacity="0" offset="0"/>
<stop stop-color="#1f3f77" offset="1"/>
</linearGradient>
<linearGradient id="i" x1="353.12" x2="-94.448" y1="322.73" y2="15.208" gradientUnits="userSpaceOnUse" xlink:href="#f"/>
<linearGradient id="h" x1="256" x2="256" y1="427.87" y2="497.16" gradientUnits="userSpaceOnUse" xlink:href="#f"/>
<linearGradient id="g" x1="587.78" x2="232.41" y1="422.83" y2="243.64" gradientUnits="userSpaceOnUse">
<stop stop-color="#3457a0" stop-opacity="0" offset="0"/>
<stop stop-color="#2a4c8d" stop-opacity=".32549" offset=".3251"/>
<stop stop-color="#22427d" stop-opacity=".70588" offset=".7045"/>
<stop stop-color="#1f3f77" offset="1"/>
</linearGradient>
<path d="m420.42 503.23c-109.5 11.688-219.34 11.688-328.84 0-43.664-4.6602-78.152-39.148-82.812-82.816-11.688-109.5-11.688-219.34 0-328.84 4.6602-43.664 39.148-78.152 82.812-82.812 109.5-11.688 219.34-11.688 328.84 0 43.668 4.6602 78.156 39.148 82.816 82.812 11.688 109.5 11.688 219.34 0 328.84-4.6602 43.668-39.145 78.156-82.812 82.816z" fill="url(#j)"/>
<path d="m475.39 110.1c-4.1328-38.746-34.734-69.352-73.484-73.488-97.172-10.367-194.63-10.367-291.8 0-38.746 4.1367-69.352 34.742-73.488 73.488-10.367 97.172-10.367 194.63 0 291.8 4.1367 38.75 34.742 69.355 73.488 73.488 97.172 10.371 194.63 10.371 291.8 0 38.75-4.1328 69.355-34.738 73.488-73.488 10.371-97.168 10.371-194.63 0-291.8z" fill="url(#i)"/>
<path d="m7.6719 409.8c0.35156 3.5391 0.71484 7.0781 1.0938 10.617 4.6602 43.664 39.148 78.152 82.816 82.812 109.5 11.688 219.34 11.688 328.84 0 43.668-4.6602 78.152-39.148 82.812-82.812 0.37891-3.5391 0.74219-7.0781 1.0977-10.617z" fill="url(#h)"/>
<path d="m344.21 85.27c-44.609 0-80.77 36.164-80.77 80.773v60.332h-43.469v74.699l43.469 38.934v171.97c52.352-0.25391 104.7-3.1641 156.98-8.7422 43.668-4.6602 78.152-39.148 82.812-82.816 8.6953-81.477 10.918-163.13 6.6719-244.7l-90.445-90.445z" fill="url(#g)"/>
<path d="m263.45 511.98c29.832-0.14453 59.66-1.1562 89.477-3.0312v-207.87h59.367l7.1719-74.699h-66.539v-47.434c0-10.477 8.4922-18.969 18.969-18.969h47.57v-74.703h-75.246c-44.609 0-80.77 36.164-80.77 80.773v60.332h-43.469v74.699h43.469z" fill="#fff"/>
</svg>
