<?xml version="1.0" encoding="UTF-8"?>
<svg width="512pt" height="512pt" viewBox="0 0 512 512" xmlns="http://www.w3.org/2000/svg" xmlns:xlink="http://www.w3.org/1999/xlink">
<radialGradient id="r" cx="104.96" cy="447.45" r="564.65" gradientUnits="userSpaceOnUse">
<stop stop-color="#fae100" offset="0"/>
<stop stop-color="#fadc04" offset=".0544"/>
<stop stop-color="#fbce0e" offset=".1167"/>
<stop stop-color="#fcb720" offset=".1829"/>
<stop stop-color="#fe9838" offset=".2514"/>
<stop stop-color="#ff7950" offset=".3054"/>
<stop stop-color="#ff1c74" offset=".4922"/>
<stop stop-color="#6c1cd1" offset="1"/>
</radialGradient>
<linearGradient id="q" x1="196.37" x2="-671.02" y1="222.46" y2="-265.45" gradientUnits="userSpaceOnUse">
<stop stop-color="#a1b5d8" stop-opacity="0" offset="0"/>
<stop stop-color="#90a2bd" stop-opacity=".3098" offset=".3094"/>
<stop stop-color="#7c8b9c" stop-opacity=".75686" offset=".7554"/>
<stop stop-color="#748290" offset="1"/>
</linearGradient>
<linearGradient id="p" x1="256" x2="256" y1="451.97" y2="531.77" gradientUnits="userSpaceOnUse">
<stop stop-color="#fae100" stop-opacity="0" offset="0"/>
<stop stop-color="#fca800" stop-opacity=".30588" offset=".3068"/>
<stop stop-color="#fe7300" stop-opacity=".62745" offset=".6275"/>
<stop stop-color="#ff5200" stop-opacity=".86667" offset=".8685"/>
<stop stop-color="#ff4500" offset="1"/>
</linearGradient>
<linearGradient id="j">
<stop stop-color="#833ab4" stop-opacity="0" offset="0"/>
<stop stop-color="#833ab4" offset="1"/>
</linearGradient>
<linearGradient id="o" x1="226.87" x2="100.16" y1="226.15" y2="99.436" gradientUnits="userSpaceOnUse" xlink:href="#j"/>
<linearGradient id="n" x1="350.9" x2="287.66" y1="468.29" y2="170.14" gradientUnits="userSpaceOnUse" xlink:href="#j"/>
<linearGradient id="m" x1="374.97" x2="120.94" y1="374.96" y2="120.94" gradientUnits="userSpaceOnUse" xlink:href="#j"/>
<linearGradient id="l" x1="393.81" x2="309.81" y1="221.26" y2="137.26" gradientUnits="userSpaceOnUse" xlink:href="#j"/>
<linearGradient id="k" x1="357.66" x2="150.54" y1="155.05" y2="362.17" gradientUnits="userSpaceOnUse">
<stop stop-color="#833ab4" offset="0"/>
<stop stop-color="#9c3495" offset=".0922"/>
<stop stop-color="#dc2546" offset=".2927"/>
<stop stop-color="#fd1d1d" offset=".392"/>
<stop stop-color="#fc6831" offset=".5589"/>
<stop stop-color="#fc9b40" offset=".6887"/>
<stop stop-color="#fcaf45" offset=".7521"/>
<stop stop-color="#fdb750" offset=".7806"/>
<stop stop-color="#fecb6a" offset=".8656"/>
<stop stop-color="#ffd87a" offset=".9415"/>
<stop stop-color="#ffdc80" offset="1"/>
</linearGradient>
<path d="m503.23 91.578c-4.6602-43.664-39.145-78.156-82.812-82.812-109.51-11.688-219.34-11.688-328.84 0-43.668 4.6602-78.156 39.148-82.816 82.812-11.688 109.5-11.688 219.34 0 328.84 4.6602 43.668 39.148 78.156 82.812 82.816 109.5 11.688 219.34 11.688 328.84 0 43.668-4.6602 78.152-39.148 82.812-82.816 11.688-109.5 11.688-219.33 0-328.84z" fill="url(#r)"/>
<path d="m475.39 110.1c-4.1328-38.746-34.734-69.352-73.484-73.488-97.172-10.367-194.63-10.367-291.8 0-38.746 4.1367-69.352 34.742-73.488 73.488-10.367 97.172-10.367 194.63 0 291.8 4.1367 38.75 34.742 69.355 73.488 73.488 97.172 10.371 194.63 10.371 291.8 0 38.75-4.1328 69.355-34.738 73.488-73.488 10.371-97.168 10.371-194.63 0-291.8z" fill="url(#q)"/>
<path d="m7.6719 409.8c0.35156 3.5391 0.71484 7.0781 1.0938 10.617 4.6602 43.664 39.148 78.152 82.816 82.812 109.5 11.688 219.34 11.688 328.84 0 43.668-4.6602 78.152-39.148 82.812-82.812 0.37891-3.5391 0.74219-7.0781 1.0977-10.617z" fill="url(#p)"/>
<path d="m503.23 420.42c6.2812-58.84 9.1797-117.77 8.7109-176.7l-117.03-117.03c-14.621-16.691-35.977-27.109-61.07-28.012-51.605-1.8594-103.38-1.7656-154.99 0.007813-42.867 1.4766-72.844 30.289-80.531 72.637-1.3555 7.4766-2.168 15.051-3.2344 22.582v124.15c0.58984 4.0234 1.457 8.0273 1.7266 12.074 1.7188 25.758 12.305 47.82 29.254 62.746l119.09 119.09c58.445 0.41016 116.89-2.4961 175.26-8.7266 43.668-4.6602 78.152-39.148 82.812-82.816z" fill="url(#o)"/>
<path d="m503.23 420.42c-4.6562 43.66-39.152 78.156-82.812 82.812-58.355 6.2266-116.82 9.1367-175.25 8.7266l-118.91-118.91c13.785 12.066 31.754 19.414 52.605 20.199 51.602 1.9375 103.38 1.8867 154.98 0.027344 46.672-1.6875 80.445-36.23 81.902-82.902 1.5547-49.555 1.5547-99.238 0-148.79-0.66406-21.531-8.2227-40.477-20.754-54.812l116.96 116.96c0.46094 58.918-2.4375 117.86-8.7148 176.7z" fill="url(#n)"/>
<path d="m316.41 200.56c-14.992-16.324-36.504-26.566-60.414-26.566-45.289 0-82.008 36.719-82.008 82.008 0 23.91 10.242 45.422 26.566 60.414l189.74 189.74c10.043-0.875 20.086-1.8477 30.121-2.918 43.668-4.6602 78.156-39.148 82.816-82.816 1.0703-10.035 2.043-20.078 2.918-30.121z" fill="url(#m)"/>
<path d="m511.01 311.15-152.7-152.7c-3.5625-4.6758-9.1758-7.7109-15.508-7.7109-10.773 0-19.512 8.7344-19.512 19.512 0 6.332 3.0352 11.945 7.7109 15.508l177.28 177.29c1.2031-17.293 2.1133-34.594 2.7305-51.895z" fill="url(#l)"/>
<path d="m95.09 193.9c1.0664-7.5312 1.8789-15.105 3.2344-22.582 7.6836-42.348 37.664-71.16 80.531-72.637 51.613-1.7734 103.38-1.8672 154.99-0.007813 46.656 1.6797 80.445 36.227 81.902 82.898 1.5508 49.559 1.5508 99.238 0 148.8-1.457 46.672-35.234 81.215-81.898 82.898-51.605 1.8633-103.39 1.9102-154.99-0.027343-46.664-1.7539-78.922-36.379-82.043-83.121-0.26953-4.043-1.1367-8.0508-1.7266-12.074v-124.14zm160.95 191.71c23.617 0 47.258 0.70703 70.844-0.16406 36.98-1.3711 59.727-23.441 60.59-60.387 1.0703-46.035 1.0703-92.133 0-138.17-0.86328-36.938-23.625-59.523-60.59-60.309-46.918-0.99219-93.887-0.98438-140.8 0-36.684 0.76953-59.496 22.898-60.492 59.43-1.2656 46.617-1.2656 93.316 0 139.93 0.99609 36.527 23.809 58.145 60.496 59.504 23.289 0.86719 46.637 0.16406 69.957 0.16406z" fill="url(#k)"/>
<g fill="#fff">
<path d="m95.09 193.9c1.0664-7.5312 1.8789-15.105 3.2344-22.582 7.6836-42.348 37.664-71.16 80.531-72.637 51.613-1.7734 103.38-1.8672 154.99-0.007813 46.656 1.6797 80.445 36.227 81.902 82.898 1.5508 49.559 1.5508 99.238 0 148.8-1.457 46.672-35.234 81.215-81.898 82.898-51.605 1.8633-103.39 1.9102-154.99-0.027343-46.664-1.7539-78.922-36.379-82.043-83.121-0.26953-4.043-1.1367-8.0508-1.7266-12.074v-124.14zm160.95 191.71c23.617 0 47.258 0.70703 70.844-0.16406 36.98-1.3711 59.727-23.441 60.59-60.387 1.0703-46.035 1.0703-92.133 0-138.17-0.86328-36.938-23.625-59.523-60.59-60.309-46.918-0.99219-93.887-0.98438-140.8 0-36.684 0.76953-59.496 22.898-60.492 59.43-1.2656 46.617-1.2656 93.316 0 139.93 0.99609 36.527 23.809 58.145 60.496 59.504 23.289 0.86719 46.637 0.16406 69.957 0.16406z"/>
<path d="m256 174c-45.289 0-82.008 36.715-82.008 82.004 0 45.293 36.719 82.008 82.008 82.008 45.293 0 82.008-36.715 82.008-82.008 0-45.289-36.715-82.004-82.008-82.004zm0 135.78c-29.699 0-53.773-24.074-53.773-53.773s24.074-53.773 53.773-53.773 53.773 24.074 53.773 53.773-24.074 53.773-53.773 53.773z"/>
<path d="m362.3 170.25c0 10.773-8.7344 19.508-19.508 19.508s-19.512-8.7344-19.512-19.508c0-10.777 8.7383-19.512 19.512-19.512s19.508 8.7344 19.508 19.512z"/>
</g>
</svg>
