<?xml version="1.0" encoding="UTF-8"?>
<svg width="512pt" height="512pt" viewBox="0 0 512 512" xmlns="http://www.w3.org/2000/svg" xmlns:xlink="http://www.w3.org/1999/xlink">
<linearGradient id="n" x1="169.99" x2="299.49" y1="71.986" y2="349.05" gradientUnits="userSpaceOnUse">
<stop stop-color="#0077b5" offset="0"/>
<stop stop-color="#0066b2" offset="1"/>
</linearGradient>
<linearGradient id="h">
<stop stop-color="#0066b2" stop-opacity="0" offset="0"/>
<stop stop-color="#07485e" offset="1"/>
</linearGradient>
<linearGradient id="m" x1="364.28" x2="-379.59" y1="314.09" y2="-84.952" gradientUnits="userSpaceOnUse" xlink:href="#h"/>
<linearGradient id="l" x1="256" x2="256" y1="415.83" y2="522.83" gradientUnits="userSpaceOnUse" xlink:href="#h"/>
<linearGradient id="k" x1="271.35" x2="79.917" y1="273.78" y2="82.338" gradientUnits="userSpaceOnUse" xlink:href="#h"/>
<linearGradient id="j" x1="383.75" x2="-1.7566" y1="451.63" y2="270.92" gradientUnits="userSpaceOnUse" xlink:href="#h"/>
<linearGradient id="i" x1="477.53" x2="208.97" y1="491.25" y2="222.69" gradientUnits="userSpaceOnUse" xlink:href="#h"/>
<path d="m420.42 503.23c-109.5 11.688-219.34 11.688-328.84 0-43.664-4.6602-78.152-39.148-82.812-82.816-11.688-109.5-11.688-219.34 0-328.84 4.6602-43.664 39.148-78.152 82.812-82.812 109.5-11.688 219.34-11.688 328.84 0 43.668 4.6602 78.156 39.148 82.816 82.812 11.688 109.5 11.688 219.34 0 328.84-4.6602 43.668-39.145 78.156-82.812 82.816z" fill="url(#n)"/>
<path d="m475.39 110.1c-4.1328-38.746-34.734-69.352-73.484-73.488-97.172-10.367-194.63-10.367-291.8 0-38.746 4.1367-69.352 34.742-73.488 73.488-10.367 97.172-10.367 194.63 0 291.8 4.1367 38.75 34.742 69.355 73.488 73.488 97.172 10.371 194.63 10.371 291.8 0 38.75-4.1328 69.355-34.738 73.488-73.488 10.371-97.168 10.371-194.63 0-291.8z" fill="url(#m)"/>
<path d="m7.6719 409.8c0.35156 3.5391 0.71484 7.0781 1.0938 10.617 4.6602 43.664 39.148 78.152 82.816 82.812 109.5 11.688 219.34 11.688 328.84 0 43.668-4.6602 78.152-39.148 82.812-82.812 0.37891-3.5391 0.74219-7.0781 1.0977-10.617z" fill="url(#l)"/>
<path d="m497.71 443.57-330.41-330.41c-7.3789-9.6289-18.988-15.844-32.055-15.844-22.289 0-40.359 18.066-40.359 40.355 0 13.07 6.2188 24.68 15.848 32.055l329.26 329.26c26.613-8.8555 47.824-29.305 57.715-55.418z" fill="url(#k)"/>
<path d="m169.15 204.5h-67.801v210.18l96.203 96.203c74.305 2.8125 148.66 0.26953 222.86-7.6523 12.973-1.3828 25.125-5.418 35.938-11.527z" fill="url(#j)"/>
<path d="m399.41 222.11c-12.402-13.598-30.258-22.129-50.105-22.129-31.395 0-51.656 11.027-63.715 21.266l-13.285-16.742h-62.473v210.18l96.492 96.492c38.055-1.2383 76.094-3.8867 114.1-7.9414 43.668-4.6602 78.152-39.148 82.812-82.812 3.1172-29.195 5.3945-58.414 6.8477-87.641z" fill="url(#i)"/>
<g fill="#fff">
<path d="m101.36 204.5h67.797v210.18h-67.797z"/>
<path d="m349.3 199.98c-49.684 0-71.508 27.613-77 36.02v-31.496h-62.473v210.18h67.801v-105.57c0-30.508 14.043-54.238 40.68-54.238 26.633 0 30.992 29.539 30.992 65.863v93.949h67.801v-146.9c0-37.445-30.355-67.801-67.801-67.801z"/>
<path d="m175.61 137.68c0 22.289-18.066 40.355-40.355 40.355-22.289 0-40.359-18.066-40.359-40.355 0-22.289 18.07-40.359 40.359-40.359 22.289 0 40.355 18.07 40.355 40.359z"/>
</g>
</svg>
